<svg xmlns="http://www.w3.org/2000/svg" xmlns:xlink="http://www.w3.org/1999/xlink" width="488" zoomAndPan="magnify" viewBox="0 0 366 91.5" height="122" preserveAspectRatio="xMidYMid meet" version="1.0"><defs><g/><clipPath id="17cfc8734b"><path d="M 1.453125 18.953125 L 52.921875 18.953125 L 52.921875 71.914062 L 1.453125 71.914062 Z M 1.453125 18.953125 " clip-rule="nonzero"/></clipPath></defs><g clip-path="url(#17cfc8734b)"><path fill="#000000" d="M 1.597656 19.867188 L 1.597656 71 C 1.597656 71.253906 1.6875 71.46875 1.867188 71.644531 C 2.046875 71.824219 2.265625 71.914062 2.519531 71.914062 L 42.957031 71.914062 C 43.210938 71.914062 43.425781 71.824219 43.605469 71.644531 C 43.785156 71.46875 43.875 71.253906 43.875 71 L 43.875 55.714844 L 50.621094 45.433594 L 51.6875 43.816406 C 51.960938 43.402344 52.144531 42.949219 52.234375 42.460938 C 52.328125 41.972656 52.324219 41.484375 52.21875 41 C 52.117188 40.511719 51.925781 40.066406 51.644531 39.652344 C 51.363281 39.242188 51.011719 38.902344 50.59375 38.628906 L 50.390625 38.503906 C 49.972656 38.230469 49.519531 38.046875 49.027344 37.957031 C 48.535156 37.863281 48.046875 37.867188 47.554688 37.96875 C 47.066406 38.070312 46.613281 38.261719 46.203125 38.542969 C 45.789062 38.824219 45.445312 39.171875 45.171875 39.589844 L 44.335938 40.867188 L 43.859375 41.597656 L 43.859375 26.457031 C 43.855469 26.21875 43.769531 26.011719 43.601562 25.835938 L 36.957031 19.21875 C 36.785156 19.039062 36.578125 18.953125 36.332031 18.953125 L 2.492188 18.953125 C 2.242188 18.960938 2.03125 19.050781 1.859375 19.230469 C 1.683594 19.40625 1.597656 19.617188 1.597656 19.867188 Z M 39.28125 59.484375 L 35.742188 57.183594 L 45.335938 42.566406 L 48.875 44.867188 Z M 35.226562 58.957031 L 37.773438 60.609375 L 34.933594 62.160156 Z M 49.425781 39.953125 L 49.628906 40.082031 C 49.851562 40.226562 50.039062 40.40625 50.1875 40.621094 C 50.335938 40.839844 50.4375 41.074219 50.492188 41.332031 C 50.546875 41.589844 50.550781 41.847656 50.5 42.105469 C 50.453125 42.363281 50.355469 42.601562 50.207031 42.820312 L 49.839844 43.378906 L 46.300781 41.085938 L 46.671875 40.519531 C 46.816406 40.300781 46.996094 40.117188 47.214844 39.972656 C 47.433594 39.824219 47.671875 39.722656 47.929688 39.671875 C 48.191406 39.617188 48.449219 39.617188 48.707031 39.664062 C 48.96875 39.714844 49.207031 39.8125 49.425781 39.953125 Z M 41.15625 25.902344 L 36.910156 25.902344 L 36.910156 21.691406 Z M 3.382812 20.714844 L 35.125 20.714844 L 35.125 26.796875 C 35.125 27.046875 35.214844 27.261719 35.394531 27.441406 C 35.574219 27.621094 35.792969 27.710938 36.046875 27.710938 L 42.101562 27.710938 L 42.101562 44.292969 L 33.757812 56.929688 C 33.730469 56.976562 33.707031 57.03125 33.691406 57.085938 C 33.671875 57.140625 33.652344 57.199219 33.636719 57.257812 L 33.050781 63.695312 C 33.023438 64.042969 33.15625 64.316406 33.445312 64.515625 C 33.75 64.691406 34.058594 64.691406 34.363281 64.515625 L 39.941406 61.46875 C 40.035156 61.421875 40.109375 61.355469 40.171875 61.277344 L 40.21875 61.21875 L 42.054688 58.480469 L 42.054688 70.152344 L 3.382812 70.152344 Z M 3.382812 20.714844 " fill-opacity="1" fill-rule="nonzero"/></g><path fill="#000000" d="M 9.117188 32.082031 L 36.6875 32.175781 C 36.828125 32.207031 36.964844 32.210938 37.101562 32.183594 C 37.242188 32.152344 37.367188 32.09375 37.476562 32.007812 C 37.589844 31.921875 37.675781 31.816406 37.738281 31.6875 C 37.800781 31.5625 37.832031 31.429688 37.832031 31.289062 C 37.832031 31.148438 37.800781 31.015625 37.738281 30.886719 C 37.675781 30.761719 37.589844 30.65625 37.476562 30.570312 C 37.367188 30.480469 37.242188 30.425781 37.101562 30.394531 C 36.964844 30.367188 36.828125 30.367188 36.6875 30.402344 L 9.117188 30.320312 C 8.980469 30.285156 8.839844 30.277344 8.699219 30.304688 C 8.558594 30.332031 8.429688 30.390625 8.316406 30.476562 C 8.203125 30.5625 8.117188 30.671875 8.050781 30.796875 C 7.988281 30.925781 7.957031 31.058594 7.957031 31.203125 C 7.957031 31.34375 7.988281 31.480469 8.050781 31.605469 C 8.117188 31.734375 8.203125 31.839844 8.316406 31.925781 C 8.429688 32.015625 8.558594 32.070312 8.699219 32.097656 C 8.839844 32.125 8.980469 32.121094 9.117188 32.082031 Z M 9.117188 32.082031 " fill-opacity="1" fill-rule="nonzero"/><path fill="#000000" d="M 9.117188 40.457031 L 36.6875 40.546875 C 36.941406 40.546875 37.160156 40.457031 37.339844 40.28125 C 37.519531 40.101562 37.609375 39.886719 37.609375 39.632812 C 37.609375 39.382812 37.519531 39.167969 37.339844 38.988281 C 37.160156 38.8125 36.941406 38.722656 36.6875 38.722656 L 9.117188 38.628906 C 8.980469 38.59375 8.839844 38.589844 8.699219 38.617188 C 8.558594 38.644531 8.429688 38.699219 8.316406 38.785156 C 8.203125 38.871094 8.117188 38.980469 8.050781 39.105469 C 7.988281 39.234375 7.957031 39.367188 7.957031 39.511719 C 7.957031 39.652344 7.988281 39.789062 8.050781 39.914062 C 8.117188 40.042969 8.203125 40.148438 8.316406 40.238281 C 8.429688 40.324219 8.558594 40.378906 8.699219 40.40625 C 8.839844 40.433594 8.980469 40.429688 9.117188 40.390625 Z M 9.117188 40.457031 " fill-opacity="1" fill-rule="nonzero"/><path fill="#000000" d="M 31.007812 47.160156 L 9.117188 47.066406 C 8.980469 47.03125 8.84375 47.03125 8.703125 47.058594 C 8.566406 47.089844 8.441406 47.148438 8.328125 47.234375 C 8.214844 47.320312 8.128906 47.425781 8.066406 47.550781 C 8.003906 47.679688 7.972656 47.8125 7.972656 47.953125 C 7.972656 48.09375 8.003906 48.226562 8.066406 48.355469 C 8.128906 48.480469 8.214844 48.585938 8.328125 48.671875 C 8.441406 48.757812 8.566406 48.816406 8.703125 48.847656 C 8.84375 48.875 8.980469 48.871094 9.117188 48.839844 L 31.007812 48.921875 C 31.148438 48.957031 31.285156 48.964844 31.425781 48.9375 C 31.566406 48.910156 31.695312 48.851562 31.808594 48.765625 C 31.921875 48.679688 32.011719 48.570312 32.074219 48.445312 C 32.136719 48.316406 32.167969 48.183594 32.167969 48.039062 C 32.167969 47.898438 32.136719 47.761719 32.074219 47.636719 C 32.011719 47.507812 31.921875 47.402344 31.808594 47.3125 C 31.695312 47.226562 31.566406 47.171875 31.425781 47.144531 C 31.285156 47.117188 31.148438 47.121094 31.007812 47.160156 Z M 31.007812 47.160156 " fill-opacity="1" fill-rule="nonzero"/><path fill="#000000" d="M 28.078125 60.042969 L 9.492188 59.925781 C 9.292969 59.976562 9.128906 60.085938 9.003906 60.25 C 8.878906 60.414062 8.816406 60.597656 8.816406 60.804688 C 8.816406 61.011719 8.878906 61.195312 9.003906 61.359375 C 9.128906 61.523438 9.292969 61.632812 9.492188 61.6875 L 28.097656 61.777344 C 28.234375 61.8125 28.371094 61.8125 28.507812 61.785156 C 28.648438 61.757812 28.773438 61.699219 28.882812 61.613281 C 28.996094 61.523438 29.082031 61.417969 29.144531 61.292969 C 29.207031 61.167969 29.238281 61.03125 29.238281 60.890625 C 29.238281 60.75 29.207031 60.617188 29.144531 60.492188 C 29.082031 60.363281 28.996094 60.257812 28.882812 60.171875 C 28.773438 60.085938 28.648438 60.027344 28.507812 60 C 28.371094 59.96875 28.234375 59.972656 28.097656 60.007812 Z M 28.078125 60.042969 " fill-opacity="1" fill-rule="nonzero"/><g fill="#000000" fill-opacity="1"><g transform="translate(52.71491, 66.854288)"><g><path d="M 38.828125 0 L 30.3125 0 L 12.84375 -23.375 L 12.84375 0 L 3.796875 0 L 3.796875 -37.953125 L 12.3125 -37.953125 L 29.828125 -14.53125 L 29.828125 -37.953125 L 38.828125 -37.953125 Z M 38.828125 0 "/></g></g></g><g fill="#000000" fill-opacity="1"><g transform="translate(92.244103, 66.854288)"><g><path d="M 17.296875 -29.546875 C 22.066406 -29.546875 25.914062 -28.179688 28.84375 -25.453125 C 31.769531 -22.722656 33.234375 -19.117188 33.234375 -14.640625 C 33.234375 -10.160156 31.769531 -6.546875 28.84375 -3.796875 C 25.914062 -1.046875 22.066406 0.328125 17.296875 0.328125 C 12.484375 0.328125 8.613281 -1.046875 5.6875 -3.796875 C 2.757812 -6.546875 1.296875 -10.160156 1.296875 -14.640625 C 1.296875 -19.117188 2.757812 -22.722656 5.6875 -25.453125 C 8.613281 -28.179688 12.484375 -29.546875 17.296875 -29.546875 Z M 17.296875 -22.125 C 15.347656 -22.125 13.765625 -21.414062 12.546875 -20 C 11.335938 -18.59375 10.734375 -16.769531 10.734375 -14.53125 C 10.734375 -12.25 11.335938 -10.410156 12.546875 -9.015625 C 13.765625 -7.628906 15.347656 -6.9375 17.296875 -6.9375 C 19.210938 -6.9375 20.773438 -7.628906 21.984375 -9.015625 C 23.191406 -10.410156 23.796875 -12.25 23.796875 -14.53125 C 23.796875 -16.769531 23.191406 -18.59375 21.984375 -20 C 20.773438 -21.414062 19.210938 -22.125 17.296875 -22.125 Z M 17.296875 -22.125 "/></g></g></g><g fill="#000000" fill-opacity="1"><g transform="translate(123.693878, 66.854288)"><g><path d="M 20.765625 -8.078125 L 22.609375 -1.578125 C 20.328125 -0.234375 17.722656 0.4375 14.796875 0.4375 C 11.910156 0.4375 9.570312 -0.363281 7.78125 -1.96875 C 5.988281 -3.582031 5.09375 -5.875 5.09375 -8.84375 L 5.09375 -21.734375 L 1.03125 -21.734375 L 1.03125 -27.875 L 5.09375 -27.875 L 5.09375 -36 L 14.421875 -36 L 14.421875 -27.921875 L 22.0625 -27.921875 L 22.0625 -21.734375 L 14.421875 -21.734375 L 14.421875 -10.296875 C 14.421875 -9.179688 14.644531 -8.359375 15.09375 -7.828125 C 15.550781 -7.304688 16.234375 -7.066406 17.140625 -7.109375 C 18.003906 -7.109375 19.210938 -7.429688 20.765625 -8.078125 Z M 20.765625 -8.078125 "/></g></g></g><g fill="#000000" fill-opacity="1"><g transform="translate(144.190346, 66.854288)"><g><path d="M 16.53125 -29.546875 C 21.59375 -29.546875 25.394531 -27.988281 27.9375 -24.875 C 30.488281 -21.769531 31.601562 -17.507812 31.28125 -12.09375 L 10.734375 -12.09375 C 11.203125 -10.351562 12.03125 -9.015625 13.21875 -8.078125 C 14.414062 -7.140625 15.882812 -6.671875 17.625 -6.671875 C 20.300781 -6.671875 22.628906 -7.664062 24.609375 -9.65625 L 29.546875 -4.828125 C 26.398438 -1.390625 22.15625 0.328125 16.8125 0.328125 C 12.070312 0.328125 8.300781 -1.023438 5.5 -3.734375 C 2.695312 -6.453125 1.296875 -10.050781 1.296875 -14.53125 C 1.296875 -19.050781 2.695312 -22.679688 5.5 -25.421875 C 8.300781 -28.171875 11.976562 -29.546875 16.53125 -29.546875 Z M 10.578125 -17.140625 L 22.28125 -17.140625 C 22.28125 -18.910156 21.765625 -20.335938 20.734375 -21.421875 C 19.703125 -22.503906 18.335938 -23.046875 16.640625 -23.046875 C 15.054688 -23.046875 13.71875 -22.507812 12.625 -21.4375 C 11.539062 -20.375 10.859375 -18.941406 10.578125 -17.140625 Z M 10.578125 -17.140625 "/></g></g></g><g fill="#607274" fill-opacity="1"><g transform="translate(179.113409, 66.854288)"><g><path d="M 18.375 -38.390625 C 24.050781 -38.390625 29.039062 -36.976562 33.34375 -34.15625 L 29.71875 -26.625 C 27.726562 -27.78125 25.59375 -28.726562 23.3125 -29.46875 C 21.03125 -30.207031 19.113281 -30.578125 17.5625 -30.578125 C 14.78125 -30.578125 13.390625 -29.65625 13.390625 -27.8125 C 13.390625 -26.625 14.078125 -25.664062 15.453125 -24.9375 C 16.828125 -24.21875 18.5 -23.59375 20.46875 -23.0625 C 22.4375 -22.539062 24.40625 -21.910156 26.375 -21.171875 C 28.34375 -20.429688 30.015625 -19.226562 31.390625 -17.5625 C 32.765625 -15.90625 33.453125 -13.8125 33.453125 -11.28125 C 33.453125 -7.625 32.023438 -4.773438 29.171875 -2.734375 C 26.316406 -0.691406 22.679688 0.328125 18.265625 0.328125 C 15.128906 0.328125 12.023438 -0.210938 8.953125 -1.296875 C 5.878906 -2.378906 3.203125 -3.863281 0.921875 -5.75 L 4.65625 -13.171875 C 6.570312 -11.515625 8.832031 -10.148438 11.4375 -9.078125 C 14.039062 -8.015625 16.351562 -7.484375 18.375 -7.484375 C 19.9375 -7.484375 21.148438 -7.757812 22.015625 -8.3125 C 22.878906 -8.875 23.3125 -9.703125 23.3125 -10.796875 C 23.3125 -11.835938 22.8125 -12.707031 21.8125 -13.40625 C 20.820312 -14.113281 19.585938 -14.640625 18.109375 -14.984375 C 16.628906 -15.328125 15.019531 -15.785156 13.28125 -16.359375 C 11.550781 -16.941406 9.941406 -17.578125 8.453125 -18.265625 C 6.972656 -18.953125 5.734375 -20.046875 4.734375 -21.546875 C 3.742188 -23.046875 3.25 -24.847656 3.25 -26.953125 C 3.25 -30.421875 4.628906 -33.191406 7.390625 -35.265625 C 10.160156 -37.347656 13.820312 -38.390625 18.375 -38.390625 Z M 18.375 -38.390625 "/></g></g></g><g fill="#607274" fill-opacity="1"><g transform="translate(210.942763, 66.854288)"><g><path d="M 23.203125 -29.65625 C 26.421875 -29.65625 29.003906 -28.632812 30.953125 -26.59375 C 32.910156 -24.550781 33.890625 -21.832031 33.890625 -18.4375 L 33.890625 0 L 24.5 0 L 24.5 -15.828125 C 24.5 -17.523438 24.035156 -18.867188 23.109375 -19.859375 C 22.191406 -20.859375 20.941406 -21.359375 19.359375 -21.359375 C 17.546875 -21.359375 16.097656 -20.707031 15.015625 -19.40625 C 13.929688 -18.101562 13.390625 -16.441406 13.390625 -14.421875 L 13.390625 0 L 4.015625 0 L 4.015625 -40.234375 L 13.390625 -40.234375 L 13.390625 -24.40625 C 15.453125 -27.832031 18.722656 -29.582031 23.203125 -29.65625 Z M 23.203125 -29.65625 "/></g></g></g><g fill="#607274" fill-opacity="1"><g transform="translate(244.615736, 66.854288)"><g><path d="M 16.859375 -29.65625 C 20.867188 -29.65625 23.984375 -28.722656 26.203125 -26.859375 C 28.429688 -25.003906 29.566406 -22.410156 29.609375 -19.078125 L 29.609375 0 L 20.4375 0 L 20.4375 -3.359375 C 18.519531 -0.828125 15.539062 0.4375 11.5 0.4375 C 8.425781 0.4375 5.984375 -0.410156 4.171875 -2.109375 C 2.367188 -3.804688 1.46875 -6.015625 1.46875 -8.734375 C 1.46875 -11.515625 2.429688 -13.671875 4.359375 -15.203125 C 6.296875 -16.742188 9.070312 -17.53125 12.6875 -17.5625 L 20.390625 -17.5625 L 20.390625 -18 C 20.390625 -19.445312 19.910156 -20.578125 18.953125 -21.390625 C 17.992188 -22.203125 16.570312 -22.609375 14.6875 -22.609375 C 12.050781 -22.609375 9.144531 -21.796875 5.96875 -20.171875 L 3.3125 -26.34375 C 8.039062 -28.550781 12.554688 -29.65625 16.859375 -29.65625 Z M 14.375 -5.90625 C 15.851562 -5.90625 17.148438 -6.273438 18.265625 -7.015625 C 19.390625 -7.765625 20.097656 -8.734375 20.390625 -9.921875 L 20.390625 -12.53125 L 14.46875 -12.53125 C 11.65625 -12.53125 10.25 -11.476562 10.25 -9.375 C 10.25 -8.289062 10.609375 -7.441406 11.328125 -6.828125 C 12.054688 -6.210938 13.070312 -5.90625 14.375 -5.90625 Z M 14.375 -5.90625 "/></g></g></g><g fill="#607274" fill-opacity="1"><g transform="translate(274.059217, 66.854288)"><g><path d="M 13.125 -29.21875 L 13.125 -24.296875 C 15.1875 -27.796875 18.347656 -29.582031 22.609375 -29.65625 L 22.609375 -21.203125 C 19.929688 -21.453125 17.742188 -21.003906 16.046875 -19.859375 C 14.347656 -18.722656 13.375 -17.109375 13.125 -15.015625 L 13.125 0 L 3.734375 0 L 3.734375 -29.21875 Z M 13.125 -29.21875 "/></g></g></g><g fill="#607274" fill-opacity="1"><g transform="translate(294.121894, 66.854288)"><g><path d="M 16.53125 -29.546875 C 21.59375 -29.546875 25.394531 -27.988281 27.9375 -24.875 C 30.488281 -21.769531 31.601562 -17.507812 31.28125 -12.09375 L 10.734375 -12.09375 C 11.203125 -10.351562 12.03125 -9.015625 13.21875 -8.078125 C 14.414062 -7.140625 15.882812 -6.671875 17.625 -6.671875 C 20.300781 -6.671875 22.628906 -7.664062 24.609375 -9.65625 L 29.546875 -4.828125 C 26.398438 -1.390625 22.15625 0.328125 16.8125 0.328125 C 12.070312 0.328125 8.300781 -1.023438 5.5 -3.734375 C 2.695312 -6.453125 1.296875 -10.050781 1.296875 -14.53125 C 1.296875 -19.050781 2.695312 -22.679688 5.5 -25.421875 C 8.300781 -28.171875 11.976562 -29.546875 16.53125 -29.546875 Z M 10.578125 -17.140625 L 22.28125 -17.140625 C 22.28125 -18.910156 21.765625 -20.335938 20.734375 -21.421875 C 19.703125 -22.503906 18.335938 -23.046875 16.640625 -23.046875 C 15.054688 -23.046875 13.71875 -22.507812 12.625 -21.4375 C 11.539062 -20.375 10.859375 -18.941406 10.578125 -17.140625 Z M 10.578125 -17.140625 "/></g></g></g></svg>